<svg xmlns="http://www.w3.org/2000/svg" width="45.75" height="45.75" viewBox="0 0 45.75 45.75">
  <defs>
    <style>
      .cls-1 {
        fill: #146bad;
        fill-rule: evenodd;
      }
    </style>
  </defs>
  <path id="facebook.svg" class="cls-1" d="M764.384,1595.87a22.87,22.87,0,1,0-22.87-22.87,22.87,22.87,0,0,0,22.87,22.87m-5.518-26.74h2.364v-2.3a6.12,6.12,0,0,1,.761-3.54,4.2,4.2,0,0,1,3.672-1.72,15.048,15.048,0,0,1,4.238.42l-0.59,3.5a8.131,8.131,0,0,0-1.905-.28c-0.921,0-1.743.33-1.743,1.25v2.67h3.769l-0.263,3.42h-3.506v11.88H761.23v-11.88h-2.364v-3.42Z" transform="translate(-741.5 -1550.13)"/>
</svg>
