<svg xmlns="http://www.w3.org/2000/svg" width="14.85" height="13.562" viewBox="0 0 14.85 13.562">
  <defs>
    <style>
      .cls-1 {
        fill: #d93655;
        fill-rule: evenodd;
      }
    </style>
  </defs>
  <path id="re-assing.svg" class="cls-1" d="M1117.89,635.833s-8.2-6.3-8.67,3.2c0,0-.81-4.271,1.69-5.8,0,0,2.9-2.815,7.72.073l0.47-2.25,3.41,5.635-5.5,1.188A15.755,15.755,0,0,0,1117.89,635.833Zm-2.78,4.334s8.3,6.114,8.73-3.261c0,0,.75,4.334-1.75,5.865,0,0-2.9,2.815-7.71-.073l-0.67,1.937-2.78-5.291,4.81-1.469S1115.28,639.521,1115.11,640.167Z" transform="translate(-1109.09 -631.063)"/>
</svg>
