<svg xmlns="http://www.w3.org/2000/svg" width="45.75" height="45.75" viewBox="0 0 45.75 45.75">
  <defs>
    <style>
      .cls-1 {
        fill: #2dbbf9;
        fill-rule: evenodd;
      }
    </style>
  </defs>
  <path id="twitter.svg" class="cls-1" d="M831.616,1595.87A22.87,22.87,0,1,0,808.747,1573a22.87,22.87,0,0,0,22.869,22.87m11.475-28.86a9.757,9.757,0,0,1-2.7.74,4.685,4.685,0,0,0,2.067-2.6,9.349,9.349,0,0,1-2.987,1.14,4.7,4.7,0,0,0-8.128,3.21,4.57,4.57,0,0,0,.122,1.07,13.306,13.306,0,0,1-9.689-4.91,4.712,4.712,0,0,0,1.455,6.28,4.664,4.664,0,0,1-2.13-.59v0.06a4.7,4.7,0,0,0,3.771,4.61,4.6,4.6,0,0,1-1.238.17,4.29,4.29,0,0,1-.884-0.09,4.684,4.684,0,0,0,4.39,3.26,9.383,9.383,0,0,1-5.837,2.02,8.326,8.326,0,0,1-1.122-.07,13.368,13.368,0,0,0,20.577-11.26c0-.2,0-0.41-0.013-0.61a9.476,9.476,0,0,0,2.346-2.43" transform="translate(-808.75 -1550.13)"/>
</svg>
