<svg xmlns="http://www.w3.org/2000/svg" width="18.781" height="19.5" viewBox="0 0 18.781 19.5">
  <defs>
    <style>
      .cls-1 {
        fill: #d93655;
        fill-rule: evenodd;
      }
    </style>
  </defs>
  <path id="view_item.svg" class="cls-1" d="M987.7,562.776a9.039,9.039,0,0,1-3.392,1.033c-3.993,0-7.071-3.618-7.071-7.611a6.88,6.88,0,0,1,7.071-6.972c3.993,0,7.611,2.979,7.611,6.972a8.263,8.263,0,0,1-1.769,4.6l5.608,5.264a0.844,0.844,0,0,1,0,1.2l-1.195,1.195a0.846,0.846,0,0,1-1.2,0Zm-3.08-11.2a4.9,4.9,0,1,1-4.9,4.9A4.9,4.9,0,0,1,984.623,551.577Z" transform="translate(-977.25 -549.219)"/>
</svg>
