<svg xmlns="http://www.w3.org/2000/svg" width="34" height="21.969" viewBox="0 0 34 21.969">
  <defs>
    <style>
      .cls-1 {
        fill: #1b75ba;
        fill-rule: evenodd;
      }
    </style>
  </defs>
  <path id="added-item.svg" class="cls-1" d="M583.793,792.145h3.612a2.053,2.053,0,0,1,2.053,2.053v3.612a2.053,2.053,0,0,1-2.053,2.053h-3.612a2.053,2.053,0,0,1-2.053-2.053V794.2A2.053,2.053,0,0,1,583.793,792.145Zm0,11.745h3.612a2.053,2.053,0,0,1,2.053,2.053V809.8a2.053,2.053,0,0,1-2.053,2.053h-3.612a2.053,2.053,0,0,1-2.053-2.053v-3.859A2.053,2.053,0,0,1,583.793,803.89Zm8.715-11.76h17.765a0.987,0.987,0,0,1,0,1.974H592.508A0.987,0.987,0,0,1,592.508,792.13Zm0,5.922h17.765a0.987,0.987,0,0,1,0,1.974H592.508A0.987,0.987,0,1,1,592.508,798.052Zm0,5.922h17.765a0.987,0.987,0,0,1,0,1.974H592.508A0.987,0.987,0,1,1,592.508,803.974Zm0,5.922h17.765a0.987,0.987,0,1,1,0,1.974H592.508A0.987,0.987,0,1,1,592.508,809.9Zm31.356-11.036L604.522,818.2l-1.8-1.463-1.475-1.524-7.448-7.781,6.728-7.062,3.515,3.849L616.8,791.8Zm-8.1,4.066L604.585,814.1l-1.274-1.274-0.085.085-5.654-5.654,3.029-3.03,3.9,3.9,8.233-8.233Z" transform="translate(-581.75 -792.125)"/>
</svg>
