<svg xmlns="http://www.w3.org/2000/svg" width="10.41" height="11.188" viewBox="0 0 10.41 11.188">
  <defs>
    <style>
      .cls-1 {
        fill: #fff;
        fill-rule: evenodd;
      }
    </style>
  </defs>
  <path id="login.svg" class="cls-1" d="M1223.48,12.588a3.693,3.693,0,0,0-3.77-3.733,3.649,3.649,0,0,0-3.71,3.733h-1.43l0.04,6.487a0.639,0.639,0,0,0,.68.953h8.84a0.918,0.918,0,0,0,.82-0.953l-0.01-6.5Zm-0.65-.009a3.01,3.01,0,0,0-6.02,0h6.02Zm-3.04,1.437a1.375,1.375,0,0,1,1.38,1.379,1.2,1.2,0,0,1-.88,1.15,15.653,15.653,0,0,0,.39,1.945l-1.79.013a9.04,9.04,0,0,0,.46-1.941,1.212,1.212,0,0,1-.93-1.166A1.373,1.373,0,0,1,1219.79,14.017Z" transform="translate(-1214.53 -8.844)"/>
</svg>
