<svg xmlns="http://www.w3.org/2000/svg" width="16.75" height="11.125" viewBox="0 0 16.75 11.125">
  <defs>
    <style>
      .cls-1 {
        fill: #fff;
        fill-rule: evenodd;
      }
    </style>
  </defs>
  <path id="reginster.svg" class="cls-1" d="M1115.72,8.978a1.444,1.444,0,0,0-.6.168c-0.24.033,0.32-.034-0.38,0.1a1.5,1.5,0,0,0-.99,1.342,3.958,3.958,0,0,0-.05.849c0.07,0.3-.45.3-0.45,0.3-0.42-.027-0.23,1.289-0.23,1.289a0.692,0.692,0,0,0,.61.737,2.519,2.519,0,0,0,1.21,1.277s0.04,0.544.05,0.932c-0.06-.032.17,0.991-1.78,1.277s-1.98.916-2.35,1.266a2.568,2.568,0,0,0-.34,1.447h10.96a2.367,2.367,0,0,0-.24-1.447c-0.2-.7-1.02-1.049-2.17-1.266-1.94-.287-1.95-1.281-1.97-1.342,0.01-.153.07-0.8,0.07-0.8a3.086,3.086,0,0,0,1.09-1.37,1.562,1.562,0,0,0,.9-0.679s0.15-1.6-.35-1.6c0,0-.62.034-0.56-0.268a2.47,2.47,0,0,0-.02-0.854c-0.03-.336.2-0.364-0.5-0.5a3.1,3.1,0,0,0-.77.013c-0.24-.034-0.42-1.022-0.85-1.022Zm5.79,8.18c-0.01-.3-0.04-0.746-0.04-0.746a1.963,1.963,0,0,1-.93-0.979,0.521,0.521,0,0,1-.46-0.565s-0.15-1.009.17-.988c0,0,.28,0,0.23-0.232a13.6,13.6,0,0,1-.03-1.391,1.079,1.079,0,0,1,.66-1.055,3.018,3.018,0,0,1,.57-0.077,1.124,1.124,0,0,1,.46-0.129l0.7-.111a2.457,2.457,0,0,1,.73.492,1.611,1.611,0,0,1,.49-0.01c0.54,0.1.47,0.838,0.5,1.1a7.268,7.268,0,0,1-.01,1.236c-0.05.232,0.11,0.206,0.11,0.206,0.38,0,.36.988,0.36,0.988a0.863,0.863,0,0,1-.56.52,2.359,2.359,0,0,1-.84,1.049s-0.05.5-.05,0.613c0.01,0.046-.28.808,1.2,1.028a2.738,2.738,0,0,1,2.03.971,1.71,1.71,0,0,1,.34.885h-3.95a5.716,5.716,0,0,0-.4-1.637A3.908,3.908,0,0,0,1121.51,17.157Z" transform="translate(-1110.41 -8.844)"/>
</svg>
